<svg enable-background="new 0 0 64 64" height="64" viewBox="0 0 64 64" width="64" xmlns="http://www.w3.org/2000/svg"><g id="Ebene_2"/><g id="Ebene_1"><g><path d="m56 10h-8v-2c0-1.104-.896-2-2-2s-2 .896-2 2v2h-24v-2c0-1.104-.896-2-2-2s-2 .896-2 2v2h-8c-1.104 0-2 .896-2 2v44c0 1.104.896 2 2 2h48c1.104 0 2-.896 2-2v-44c0-1.104-.896-2-2-2zm-40 4v2c0 1.104.896 2 2 2s2-.896 2-2v-2h24v2c0 1.104.896 2 2 2s2-.896 2-2v-2h6v8h-44v-8zm-6 40v-28h44v28z"/><path d="m38.464 32.72-8.85 10.619-4.505-3.003c-.918-.613-2.161-.364-2.773.555-.613.919-.364 2.161.555 2.773l6 4c.339.227.725.336 1.108.336.576 0 1.145-.248 1.538-.72l10-12c.707-.849.593-2.109-.256-2.817s-2.11-.591-2.817.257z"/></g></g></svg>